HIERARCHY
ROOT Hips
{
  OFFSET 196.326 95.9168 97.7182
  CHANNELS 6 Xposition Yposition Zposition Zrotation Xrotation Yrotation
  JOINT LeftUpLeg
  {
    OFFSET 8.64259 1.95398 -2.38835
    CHANNELS 3 Zrotation Xrotation Yrotation
    JOINT LeftLeg
    {
      OFFSET 43.7702 0 0
      CHANNELS 3 Zrotation Xrotation Yrotation
      JOINT LeftFoot
      {
        OFFSET 40.6238 0 0
        CHANNELS 3 Zrotation Xrotation Yrotation
        JOINT LeftToeBase
        {
          OFFSET 12.7242 0 0
          CHANNELS 3 Zrotation Xrotation Yrotation
          End Site
          {
            OFFSET 0 0 0
          }
        }
      }
    }
  }
  JOINT RightUpLeg
  {
    OFFSET -8.2249 1.95398 -2.59336
    CHANNELS 3 Zrotation Xrotation Yrotation
    JOINT RightLeg
    {
      OFFSET 43.5653 0 0
      CHANNELS 3 Zrotation Xrotation Yrotation
      JOINT RightFoot
      {
        OFFSET 40.6238 0 0
        CHANNELS 3 Zrotation Xrotation Yrotation
        JOINT RightToeBase
        {
          OFFSET 12.7242 0 0
          CHANNELS 3 Zrotation Xrotation Yrotation
          End Site
          {
            OFFSET 0 0 0
          }
        }
      }
    }
  }
  JOINT Spine
  {
    OFFSET 0.165834 0.87714 6.61349
    CHANNELS 3 Zrotation Xrotation Yrotation
    JOINT Spine1
    {
      OFFSET 7.38963 1.71661e-005 0
      CHANNELS 3 Zrotation Xrotation Yrotation
      JOINT Spine2
      {
        OFFSET 11.9445 1.14441e-005 0
        CHANNELS 3 Zrotation Xrotation Yrotation
        JOINT Spine3
        {
          OFFSET 14.7254 4.19617e-005 0
          CHANNELS 3 Zrotation Xrotation Yrotation
          JOINT Spine4
          {
            OFFSET 10.9679 0 0
            CHANNELS 3 Zrotation Xrotation Yrotation
            JOINT RightShoulder
            {
              OFFSET 2.46616 -1.6653 3.69651
              CHANNELS 3 Zrotation Xrotation Yrotation
              JOINT RightArm
              {
                OFFSET 13.0012 0 0
                CHANNELS 3 Zrotation Xrotation Yrotation
                JOINT RightForeArm
                {
                  OFFSET 28.7848 1.52588e-005 0
                  CHANNELS 3 Zrotation Xrotation Yrotation
                  JOINT RightHand
                  {
                    OFFSET 26.5688 1.52588e-005 0
                    CHANNELS 3 Zrotation Xrotation Yrotation
                    End Site
                    {
                      OFFSET 0 0 0
                    }
                  }
                }
              }
            }
            JOINT LeftShoulder
            {
              OFFSET 2.38034 -1.29275 -3.75231
              CHANNELS 3 Zrotation Xrotation Yrotation
              JOINT LeftArm
              {
                OFFSET 16.3182 6.10351e-005 0
                CHANNELS 3 Zrotation Xrotation Yrotation
                JOINT LeftForeArm
                {
                  OFFSET 27.0901 0 0
                  CHANNELS 3 Zrotation Xrotation Yrotation
                  JOINT LeftHand
                  {
                    OFFSET 24.5451 1.52588e-005 0
                    CHANNELS 3 Zrotation Xrotation Yrotation
                    End Site
                    {
                      OFFSET 0 0 0
                    }
                  }
                }
              }
            }
            JOINT Neck
            {
              OFFSET 5.0226 -0.0266342 0
              CHANNELS 3 Zrotation Xrotation Yrotation
              JOINT Head
              {
                OFFSET 6.69363 2.86102e-005 0
                CHANNELS 3 Zrotation Xrotation Yrotation
                End Site
                {
                  OFFSET 0 0 0
                }
              }
            }
          }
        }
      }
    }
  }
}
MOTION
Frames:	7
Frame Time:	0.0416667
30.7548 97.0478 -241.531 -21.3508 -84.4854 -21.3998 -174.919 10.06 86.749 -12.7488 16.564 -0.464774 62.3509 11.7173 18.937 38.5628 10.8139 -1.01954 178.13 22.833 88.7167 -178.105 82.8051 153.356 6.78742 -7.39001 -4.44167 17.5087 -44.0557 129.624 -0.0426353 6.7775 -90.0597 13.3188 -0.113385 -0.105255 1.64784 -0.117907 -0.100177 -20.8873 -0.0765136 -0.134476 -0.87465 -0.0765108 -0.134472 78.3773 -50.3373 -118.139 26.3061 -11.179 5.38382 -9.29729 -19.1761 -39.1024 -4.87259 -0.531124 4.69743 -104.026 -44.2898 55.6927 -29.9856 9.2677 2.62503 3.80365 10.3161 -29.6041 11.883 0.911406 3.6296 13.9684 3.83222 2.10094 -6.51082 3.1856 1.86353 
31.0366 96.7396 -240.625 -13.2671 -84.2543 -13.4882 -175.362 10.3473 86.2378 -13.5718 17.7923 -0.346153 61.7823 14.1138 23.8283 34.8283 6.65963 -17.8069 178.675 23.9017 89.0231 -41.741 78.5086 13.596 8.11513 -3.26463 1.80469 31.2204 -5.05866 125.599 -0.005776 6.81574 -90.0325 13.2424 -0.027107 -0.0616459 1.57141 -0.0297965 -0.0603949 -20.9637 -0.00732803 -0.0669469 -0.951078 -0.00733048 -0.0669483 79.334 -50.1812 -116.802 26.6818 -10.8419 5.47939 -8.43429 -17.4552 -39.4401 -5.08581 -0.630321 7.93086 -104.772 -43.7439 54.3144 -29.735 9.36968 2.90433 3.56834 9.31465 -30.2978 12.0481 0.956639 3.89559 13.3855 3.38685 1.27785 -5.60912 2.99594 2.45062 
31.4398 96.5361 -239.494 -7.17121 -84.4358 -6.98339 -175.246 9.87772 86.4087 -14.1879 17.0153 -0.240912 63.0916 15.1884 22.9554 34.661 6.52383 -22.2806 178.551 23.7404 90.7749 -35.9217 45.1913 2.81792 21.5524 4.19118 8.93695 57.6469 24.3109 84.4532 -0.0344511 6.87928 -90.0653 13.1155 -0.099774 -0.118512 1.44456 -0.104898 -0.114013 -21.0906 -0.0595474 -0.143022 -1.07793 -0.0595505 -0.143028 78.9456 -50.301 -117.322 26.707 -10.5273 6.3396 -8.60521 -17.4934 -39.2404 -6.03884 -0.690804 7.05226 -104.147 -43.5278 55.1488 -30.0324 9.90006 2.63117 3.8528 9.78575 -31.2689 11.94 0.986545 4.1953 12.8398 3.23227 1.10968 -4.94064 2.91281 2.56264 
31.9637 95.8678 -238.535 -13.9709 -84.279 -13.2325 -174.856 10.7996 86.5874 -17.3259 16.3995 -0.427869 64.3373 16.5439 23.6669 38.6186 9.29701 -25.6811 178.649 23.5811 92.793 -39.7584 20.9951 0.81088 43.332 5.12105 5.26725 70.257 15.0838 39.1766 0.0698342 6.95065 -90.092 12.9721 0.0945002 -0.195824 1.30113 0.0857952 -0.199808 -21.2339 0.148985 -0.158369 -1.22127 0.148991 -0.158371 79.0153 -50.0938 -117.305 27.1924 -10.5137 7.26836 -8.55431 -17.2583 -39.7846 -6.22429 -0.701497 6.94178 -104.03 -43.2538 55.1944 -29.551 10.9797 2.15686 3.91724 10.0353 -32.618 12.0798 1.15169 5.40866 12.0657 3.15255 0.937696 -3.86054 2.90786 2.42729 
32.225 95.314 -237.675 -23.4072 -84.2327 -24.0267 -174.988 10.5166 85.1099 -18.8034 14.5657 -0.54485 65.8492 17.2631 22.6626 41.1433 10.5176 -32.4129 178.74 23.1424 92.5669 -41.7939 10.5669 -0.922566 57.0261 0.509444 0.590686 63.8782 7.63114 21.3362 0.0682726 7.0809 -89.8466 12.7117 0.208982 0.281982 1.0408 0.221186 0.272506 -21.4942 0.114571 0.331742 -1.48153 0.114569 0.331747 78.9443 -50.3329 -117.311 27.9201 -10.5214 7.48656 -8.91997 -17.2313 -39.6901 -6.32771 -0.703002 6.75208 -103.741 -42.814 55.4216 -28.4198 10.9667 2.08221 4.84056 9.88404 -35.2189 11.2249 0.953492 4.37038 11.1008 3.44349 0.10131 -1.87086 3.4565 2.72366 
32.8167 95.0506 -236.274 -21.7041 -84.0625 -21.7469 -174.665 10.6068 85.3187 -20.4021 13.8735 -0.58528 66.8968 17.6886 22.2541 43.5503 11.8109 -34.1922 178.772 24.1547 93.2322 -42.6476 7.03392 -0.994888 65.8973 -2.93046 -1.62308 55.0393 4.21543 15.2728 -0.102612 7.16754 -89.9081 12.5393 -0.160015 0.202914 0.868301 -0.150922 0.209755 -21.6668 -0.213596 0.145444 -1.65416 -0.213596 0.145437 79.5099 -50.1401 -116.559 28.9177 -10.7393 7.65083 -8.73765 -17.3869 -39.8054 -6.61959 -0.757501 7.39526 -104.069 -43.0834 55.0537 -26.4776 10.9819 0.662479 4.79522 9.32995 -35.9929 11.2544 0.899126 3.89497 10.4133 4.23181 0.848887 -0.89967 4.08957 2.84572 
33.5247 95.1442 -233.891 -6.88569 -83.8106 -5.54711 -174.967 9.15799 86.1522 -19.2321 15.3577 0.00832052 67.1473 18.3768 23.1092 43.5884 11.4972 -37.5275 179.113 25.8773 93.648 -37.7383 6.62988 -0.351882 67.9361 -3.42215 -1.84986 51.211 3.0552 12.3351 -0.386458 7.11526 -90.1214 12.6437 -0.825578 -0.146275 0.973038 -0.831217 -0.109805 -21.5639 -0.743446 -0.387638 -1.55122 -0.74345 -0.38765 79.5992 -50.2633 -116.378 29.5938 -10.6981 9.72139 -8.3671 -16.6566 -39.2195 -6.87866 -0.723593 6.28239 -104.593 -42.9104 54.1765 -25.7331 10.6012 -0.495109 4.89583 9.06318 -36.2979 11.0452 1.01646 5.01274 9.38242 4.58119 0.65145 -0.84425 4.55268 4.0785 
